<svg width="47" height="29" viewBox="0 0 47 29" fill="none" xmlns="http://www.w3.org/2000/svg">
<g clip-path="url(#clip0_9516_6202)">
<mask id="mask0_9516_6202" style="mask-type:luminance" maskUnits="userSpaceOnUse" x="23" y="0" width="24" height="29">
<path d="M23.6471 0.292847H46.1456V28.7072H23.6471V0.292847Z" fill="white"/>
</mask>
<g mask="url(#mask0_9516_6202)">
<path d="M46.1457 0.292847L44.7673 1.59804C44.5644 1.79019 44.3365 1.95326 44.0894 2.08349C41.6831 3.35148 28.3125 10.3998 24.9336 12.2614C23.3537 13.2515 23.7249 13.6137 23.6862 15.2171C23.6891 15.8084 23.8975 16.4595 24.3376 16.8671C25.2222 17.7284 25.4716 18.5487 24.4187 19.6778C23.8188 20.2888 23.5964 20.699 23.6563 21.4617V28.7074C23.6563 28.7074 25.8141 22.4585 32.3918 20.2394C32.3918 20.2394 33.0746 20.0368 33.0746 19.4688V14.2861C33.0746 14.2861 33.1295 13.693 33.6676 13.4041C34.2057 13.1152 44.4513 8.00716 45.169 7.23974C45.8867 6.47232 46.1455 6.18657 46.1455 5.05056V0.292847H46.1457Z" fill="#B0276D"/>
<path d="M26.1631 11.1263L37.8875 4.87529C38.1613 4.72936 38.3322 4.44448 38.3322 4.13432V2.84424L36.9985 4.09624C36.9113 4.17821 36.8154 4.25059 36.7128 4.31222L26.4113 10.499C26.2573 10.5914 26.1631 10.7577 26.1631 10.9373V11.1263Z" fill="#B0276D"/>
<path d="M27.5682 9.33242L34.3114 5.25259C34.5427 5.11248 34.6843 4.86162 34.6843 4.59098V3.92065L33.855 4.72412C33.7701 4.80638 33.6788 4.88167 33.582 4.9494L27.6534 9.09376C27.6002 9.13097 27.5685 9.19202 27.5685 9.25684V9.33242H27.5682Z" fill="#B0276D"/>
</g>
<mask id="mask1_9516_6202" style="mask-type:luminance" maskUnits="userSpaceOnUse" x="0" y="0" width="23" height="29">
<path d="M22.7175 0.292847H0.21875V28.7072H22.7175V0.292847Z" fill="white"/>
</mask>
<g mask="url(#mask1_9516_6202)">
<path d="M0.21875 0.292847L1.5972 1.59804C1.8001 1.79019 2.028 1.95326 2.27509 2.08349C4.68141 3.35148 18.052 10.3998 21.4309 12.2614C23.0108 13.2515 22.6396 13.6137 22.6783 15.2171C22.6754 15.8084 22.467 16.4595 22.0268 16.8671C21.1423 17.7284 20.8929 18.5487 21.9457 19.6778C22.5457 20.2888 22.7681 20.699 22.7082 21.4617V28.7074C22.7082 28.7074 20.5504 22.4585 13.9727 20.2394C13.9727 20.2394 13.2899 20.0368 13.2899 19.4688V14.2861C13.2899 14.2861 13.2349 13.693 12.6969 13.4041C12.1588 13.1152 1.91318 8.00716 1.19547 7.23974C0.477754 6.47203 0.21875 6.18628 0.21875 5.05027V0.292847Z" fill="#B0276D"/>
<path d="M20.2011 11.1263L8.47674 4.87529C8.20291 4.72936 8.03198 4.44448 8.03198 4.13432V2.84424L9.36567 4.09624C9.45287 4.17821 9.5488 4.25059 9.65141 4.31222L19.9529 10.499C20.1069 10.5914 20.2011 10.7577 20.2011 10.9373V11.1263Z" fill="#B0276D"/>
<path d="M18.796 9.33242L12.0529 5.25259C11.8215 5.11248 11.6799 4.86162 11.6799 4.59098V3.92065L12.5093 4.72412C12.5941 4.80638 12.6854 4.88167 12.7822 4.9494L18.7108 9.09376C18.764 9.13097 18.7957 9.19202 18.7957 9.25684V9.33242H18.796Z" fill="#B0276D"/>
</g>
</g>
<defs>
<clipPath id="clip0_9516_6202">
<rect width="45.9269" height="28.4143" fill="white" transform="translate(0.21875 0.292847)"/>
</clipPath>
</defs>
</svg>
