<svg width="66" height="42" viewBox="0 0 66 42" fill="none" xmlns="http://www.w3.org/2000/svg">
<g clip-path="url(#clip0_4014_78992)">
<mask id="mask0_4014_78992" style="mask-type:luminance" maskUnits="userSpaceOnUse" x="33" y="0" width="33" height="42">
<path d="M33.6836 0.983704H65.3815V41.0163H33.6836V0.983704Z" fill="white"/>
</mask>
<g mask="url(#mask0_4014_78992)">
<path d="M65.3815 0.983704L63.4395 2.82258C63.1536 3.09329 62.8325 3.32305 62.4844 3.50653C59.0941 5.29298 40.2565 15.2233 35.4959 17.8461C33.27 19.241 33.793 19.7513 33.7386 22.0104C33.7427 22.8434 34.0363 23.7608 34.6564 24.335C35.9026 25.5485 36.254 26.7042 34.7706 28.2949C33.9253 29.1558 33.612 29.7336 33.6964 30.8083V41.0167C33.6964 41.0167 36.7365 32.2126 46.0037 29.0861C46.0037 29.0861 46.9658 28.8007 46.9658 28.0004V20.6986C46.9658 20.6986 47.0432 19.8631 47.8012 19.456C48.5593 19.0489 62.9943 11.8523 64.0055 10.7711C65.0166 9.6899 65.3811 9.28731 65.3811 7.68679V0.983704H65.3815Z" fill="white"/>
<path d="M37.2283 16.2468L53.7466 7.43983C54.1324 7.23423 54.3732 6.83288 54.3732 6.39589V4.57831L52.4942 6.34224C52.3713 6.45773 52.2362 6.55971 52.0916 6.64653L37.578 15.363C37.361 15.4932 37.2283 15.7275 37.2283 15.9806V16.2468Z" fill="white"/>
<path d="M39.208 13.7195L48.7083 7.97146C49.0343 7.77406 49.2338 7.42062 49.2338 7.03933V6.09491L48.0653 7.2269C47.9457 7.34281 47.8171 7.44888 47.6808 7.5443L39.328 13.3832C39.2531 13.4357 39.2084 13.5217 39.2084 13.613V13.7195H39.208Z" fill="white"/>
</g>
<mask id="mask1_4014_78992" style="mask-type:luminance" maskUnits="userSpaceOnUse" x="0" y="0" width="33" height="42">
<path d="M32.3739 0.983704H0.675659V41.0163H32.3739V0.983704Z" fill="white"/>
</mask>
<g mask="url(#mask1_4014_78992)">
<path d="M0.675659 0.983704L2.61774 2.82258C2.90361 3.09329 3.22469 3.32305 3.57281 3.50653C6.96306 5.29298 25.8007 15.2233 30.5613 17.8461C32.7872 19.241 32.2642 19.7513 32.3186 22.0104C32.3146 22.8434 32.0209 23.7608 31.4008 24.335C30.1546 25.5485 29.8032 26.7042 31.2866 28.2949C32.1319 29.1558 32.4452 29.7336 32.3608 30.8083V41.0167C32.3608 41.0167 29.3207 32.2126 20.0535 29.0861C20.0535 29.0861 19.0914 28.8007 19.0914 28.0004V20.6986C19.0914 20.6986 19.014 19.8631 18.256 19.456C17.4979 19.0489 3.06292 11.8523 2.05174 10.7711C1.04057 9.68949 0.675659 9.2869 0.675659 7.68638V0.983704Z" fill="white"/>
<path d="M28.8289 16.2468L12.3106 7.43983C11.9248 7.23423 11.684 6.83288 11.684 6.39589V4.57831L13.563 6.34224C13.6858 6.45773 13.821 6.55971 13.9656 6.64653L28.4792 15.363C28.6962 15.4932 28.8289 15.7275 28.8289 15.9806V16.2468Z" fill="white"/>
<path d="M26.8491 13.7195L17.3488 7.97146C17.0228 7.77406 16.8234 7.42062 16.8234 7.03933V6.09491L17.9918 7.2269C18.1114 7.34281 18.24 7.44888 18.3764 7.5443L26.7291 13.3832C26.8041 13.4357 26.8487 13.5217 26.8487 13.613V13.7195H26.8491Z" fill="white"/>
</g>
</g>
<defs>
<clipPath id="clip0_4014_78992">
<rect width="64.7059" height="40.0326" fill="white" transform="translate(0.675659 0.983704)"/>
</clipPath>
</defs>
</svg>
