<svg width="31" height="30" viewBox="0 0 31 30" fill="none" xmlns="http://www.w3.org/2000/svg">
<g clip-path="url(#clip0_108_6556)">
<path d="M26.48 0.18C26.375 0.285002 26.3 0.840002 26.3 1.605V2.865L25.1 4.56L23.9 6.27V7.935C23.9 9.495 23.885 9.6 23.6 9.6C23.225 9.6 23.12 10.005 23.18 11.325C23.225 12.255 23.27 12.39 23.57 12.525L23.9 12.675V19.8V26.925L23.57 27.075C23.255 27.21 23.225 27.345 23.18 28.44C23.15 29.34 23.195 29.7 23.345 29.835C23.495 29.955 24.53 30 26.99 29.97L30.425 29.925V28.5C30.425 27.135 30.41 27.075 30.095 27.03L29.75 26.985L29.72 21.255L29.675 15.525H29.3H28.925L28.88 21.255L28.85 27H26.9H24.95V19.8V12.6H26.885H28.835L28.88 13.305C28.925 13.965 28.955 14.025 29.3 14.025C29.645 14.025 29.675 13.965 29.72 13.32C29.765 12.735 29.81 12.615 30.095 12.57C30.41 12.525 30.425 12.45 30.425 11.1C30.425 9.735 30.41 9.675 30.095 9.63C29.765 9.585 29.75 9.525 29.75 7.89V6.21L28.55 4.515L27.35 2.805V1.635C27.35 1.005 27.305 0.375002 27.26 0.240002C27.155 -0.0449982 26.735 -0.0749989 26.48 0.18ZM27.935 5.4L28.85 6.675V8.145C28.85 9.27 28.805 9.615 28.67 9.57C28.55 9.525 28.46 9.18 28.43 8.745C28.385 8.04 28.325 7.92 27.725 7.44C27.365 7.14 26.975 6.9 26.855 6.9C26.735 6.9 26.33 7.14 25.94 7.425C25.265 7.95 25.25 7.98 25.25 8.775C25.25 9.225 25.19 9.6 25.1 9.6C25.01 9.6 24.95 8.985 24.95 8.055V6.525L25.88 5.22C26.39 4.485 26.855 3.945 26.915 4.02C26.99 4.08 27.44 4.695 27.935 5.4ZM27.23 8.355C27.395 8.49 27.5 8.805 27.5 9.105C27.5 9.615 27.5 9.615 26.87 9.57C26.285 9.525 26.225 9.48 26.18 9.105C26.135 8.685 26.495 8.1 26.795 8.1C26.885 8.1 27.08 8.205 27.23 8.355ZM29.57 11.055L29.615 11.55H27.605C26.495 11.55 25.28 11.595 24.89 11.64L24.2 11.745V11.115V10.5L26.87 10.53L29.525 10.575L29.57 11.055ZM29.57 28.53L29.525 29.025L26.87 29.07L24.2 29.1V28.575V28.05H26.915H29.615L29.57 28.53Z" fill="#B0276D"/>
<path d="M9.455 0.585047C7.835 1.62005 7.265 3.81005 8.135 5.53505C8.54 6.31505 9.515 7.12505 10.34 7.36505C10.895 7.53005 11 7.62005 11 7.95005C11 8.28005 10.76 8.44505 8.72 9.45005C4.715 11.43 2.3 13.245 1.85 14.625C1.55 15.51 1.73 16.98 2.27 18L2.72 18.87L1.61 19.965L0.5 21.075L0.53 25.5L0.575 29.925H11.525H22.475L22.52 25.5L22.55 21.075L21.44 19.965L20.315 18.855L20.765 17.985C21.305 16.905 21.455 15.705 21.2 14.745C20.78 13.26 18.605 11.595 14.225 9.42005C12.215 8.41505 12.05 8.29505 12.05 7.92005C12.05 7.63505 12.125 7.50005 12.275 7.50005C12.71 7.50005 13.955 6.76505 14.375 6.27005C15.14 5.37005 15.425 4.27505 14.96 4.09505C14.84 4.05005 14.435 4.15505 14.09 4.33505C13.265 4.74005 12.71 4.74005 11.9 4.30505C10.76 3.70505 10.37 2.34005 11.015 1.14005C11.18 0.825047 11.285 0.465046 11.24 0.360046C11.105 4.57764e-05 10.205 0.120047 9.455 0.585047ZM10.07 3.82505C10.64 4.95005 11.6 5.55005 12.83 5.55005H13.625L13.25 5.92505C12.695 6.46505 11.645 6.70505 10.85 6.46505C10.055 6.22505 9.11 5.38505 8.885 4.69505C8.645 3.93005 8.78 2.83505 9.215 2.23505L9.575 1.72505L9.665 2.47505C9.71 2.89505 9.89 3.49505 10.07 3.82505ZM14.06 10.44C16.655 11.745 19.025 13.26 19.67 14.04C20.57 15.12 20.555 16.59 19.67 17.88L19.385 18.3H14.765C10.73 18.3 10.115 18.33 9.935 18.54C9.8 18.705 9.785 18.84 9.905 19.02C10.04 19.245 10.565 19.275 14.705 19.32L19.355 19.35L20.51 20.445L21.65 21.525L21.62 25.275L21.575 29.025H18.275H14.975L14.9 26.91L14.825 24.78L13.295 23.19C12.455 22.32 11.66 21.6 11.51 21.6C11.375 21.6 10.58 22.32 9.74 23.19L8.225 24.795L8.15 26.91L8.075 29.025H4.775H1.475L1.43 25.29L1.4 21.57L2.435 20.49L3.485 19.425L5.915 19.35C7.97 19.29 8.375 19.23 8.495 19.02C8.615 18.84 8.6 18.705 8.465 18.54C8.3 18.345 7.88 18.3 5.96 18.3H3.665L3.38 17.88C2.66 16.83 2.51 15.555 3.005 14.61C3.545 13.545 5.63 12.105 9.35 10.245C10.385 9.73505 11.345 9.30005 11.51 9.30005C11.66 9.30005 12.8 9.81005 14.06 10.44ZM13.97 27.165L13.925 29.025H11.525H9.125L9.08 27.18L9.035 25.32L10.28 24.06L11.525 22.785L12.77 24.045L14.015 25.32L13.97 27.165Z" fill="#B0276D"/>
<path d="M3.84502 22.0201L2.90002 22.7251L2.94502 24.4501L2.97502 26.1751L4.70002 26.2201C7.26502 26.2801 7.10002 26.4001 7.10002 24.4501V22.8001L6.17002 22.0651C5.64502 21.6451 5.12002 21.3151 5.00002 21.3001C4.88002 21.3001 4.35502 21.6301 3.84502 22.0201ZM5.64502 22.9651C6.17002 23.4001 6.20002 23.4601 6.20002 24.3151V25.2001H5.00002H3.80002V24.2551C3.80002 23.3251 3.81502 23.2951 4.35502 22.9051C4.67002 22.6801 4.95502 22.5001 5.00002 22.5001C5.04502 22.5001 5.33002 22.7101 5.64502 22.9651Z" fill="#B0276D"/>
<path d="M16.895 22.0651L15.95 22.8001V24.4501C15.95 26.4001 15.785 26.2801 18.35 26.2201L20.075 26.1751L20.105 24.4501L20.15 22.7251L19.205 22.0051C18.68 21.6151 18.155 21.3001 18.035 21.3001C17.915 21.3151 17.405 21.6451 16.895 22.0651ZM18.68 22.8901C19.235 23.2801 19.25 23.3101 19.25 24.2401V25.2001H18.05H16.85V24.3151C16.85 23.4601 16.88 23.4001 17.405 22.9651C17.72 22.7101 18.005 22.5001 18.035 22.5001C18.08 22.5001 18.365 22.6801 18.68 22.8901Z" fill="#B0276D"/>
</g>
<defs>
<clipPath id="clip0_108_6556">
<rect width="30" height="30" fill="white" transform="translate(0.5)"/>
</clipPath>
</defs>
</svg>
