<svg width="20" height="20" viewBox="0 0 20 20" fill="none" xmlns="http://www.w3.org/2000/svg">
<g clip-path="url(#clip0_9516_8215)">
<path d="M17.3199 0.12002C17.2499 0.19002 17.1999 0.56002 17.1999 1.07002V1.91002L16.3999 3.04002L15.5999 4.18002V5.29002C15.5999 6.33002 15.5899 6.40002 15.3999 6.40002C15.1499 6.40002 15.0799 6.67002 15.1199 7.55002C15.1499 8.17002 15.1799 8.26002 15.3799 8.35002L15.5999 8.45002V13.2V17.95L15.3799 18.05C15.1699 18.14 15.1499 18.23 15.1199 18.96C15.0999 19.56 15.1299 19.8 15.2299 19.89C15.3299 19.97 16.0199 20 17.6599 19.98L19.9499 19.95V19C19.9499 18.09 19.9399 18.05 19.7299 18.02L19.4999 17.99L19.4799 14.17L19.4499 10.35H19.1999H18.9499L18.9199 14.17L18.8999 18H17.5999H16.2999V13.2V8.40002H17.5899H18.8899L18.9199 8.87002C18.9499 9.31002 18.9699 9.35002 19.1999 9.35002C19.4299 9.35002 19.4499 9.31002 19.4799 8.88002C19.5099 8.49002 19.5399 8.41002 19.7299 8.38002C19.9399 8.35002 19.9499 8.30002 19.9499 7.40002C19.9499 6.49002 19.9399 6.45002 19.7299 6.42002C19.5099 6.39002 19.4999 6.35002 19.4999 5.26002V4.14002L18.6999 3.01002L17.8999 1.87002V1.09002C17.8999 0.670019 17.8699 0.250019 17.8399 0.160021C17.7699 -0.0299797 17.4899 -0.0499802 17.3199 0.12002ZM18.2899 3.60002L18.8999 4.45002V5.43002C18.8999 6.18002 18.8699 6.41002 18.7799 6.38002C18.6999 6.35002 18.6399 6.12002 18.6199 5.83002C18.5899 5.36002 18.5499 5.28002 18.1499 4.96002C17.9099 4.76002 17.6499 4.60002 17.5699 4.60002C17.4899 4.60002 17.2199 4.76002 16.9599 4.95002C16.5099 5.30002 16.4999 5.32002 16.4999 5.85002C16.4999 6.15002 16.4599 6.40002 16.3999 6.40002C16.3399 6.40002 16.2999 5.99002 16.2999 5.37002V4.35002L16.9199 3.48002C17.2599 2.99002 17.5699 2.63002 17.6099 2.68002C17.6599 2.72002 17.9599 3.13002 18.2899 3.60002ZM17.8199 5.57002C17.9299 5.66002 17.9999 5.87002 17.9999 6.07002C17.9999 6.41002 17.9999 6.41002 17.5799 6.38002C17.1899 6.35002 17.1499 6.32002 17.1199 6.07002C17.0899 5.79002 17.3299 5.40002 17.5299 5.40002C17.5899 5.40002 17.7199 5.47002 17.8199 5.57002ZM19.3799 7.37002L19.4099 7.70002H18.0699C17.3299 7.70002 16.5199 7.73002 16.2599 7.76002L15.7999 7.83002V7.41002V7.00002L17.5799 7.02002L19.3499 7.05002L19.3799 7.37002ZM19.3799 19.02L19.3499 19.35L17.5799 19.38L15.7999 19.4V19.05V18.7H17.6099H19.4099L19.3799 19.02Z" fill="white"/>
<path d="M5.97 0.390011C4.89 1.08001 4.51 2.54001 5.09 3.69001C5.36 4.21001 6.01 4.75001 6.56 4.91001C6.93 5.02001 7 5.08001 7 5.30001C7 5.52001 6.84 5.63001 5.48 6.30001C2.81 7.62001 1.2 8.83001 0.9 9.75001C0.7 10.34 0.82 11.32 1.18 12L1.48 12.58L0.74 13.31L0 14.05L0.02 17L0.05 19.95H7.35H14.65L14.68 17L14.7 14.05L13.96 13.31L13.21 12.57L13.51 11.99C13.87 11.27 13.97 10.47 13.8 9.83001C13.52 8.84001 12.07 7.73001 9.15 6.28001C7.81 5.61001 7.7 5.53001 7.7 5.28001C7.7 5.09001 7.75 5.00001 7.85 5.00001C8.14 5.00001 8.97 4.51001 9.25 4.18001C9.76 3.58001 9.95 2.85001 9.64 2.73001C9.56 2.70001 9.29 2.77001 9.06 2.89001C8.51 3.16001 8.14 3.16001 7.6 2.87001C6.84 2.47001 6.58 1.56001 7.01 0.760012C7.12 0.550011 7.19 0.310011 7.16 0.240011C7.07 1.14441e-05 6.47 0.0800114 5.97 0.390011ZM6.38 2.55001C6.76 3.30001 7.4 3.70001 8.22 3.70001H8.75L8.5 3.95001C8.13 4.31001 7.43 4.47001 6.9 4.31001C6.37 4.15001 5.74 3.59001 5.59 3.13001C5.43 2.62001 5.52 1.89001 5.81 1.49001L6.05 1.15001L6.11 1.65001C6.14 1.93001 6.26 2.33001 6.38 2.55001ZM9.04 6.96001C10.77 7.83001 12.35 8.84001 12.78 9.36001C13.38 10.08 13.37 11.06 12.78 11.92L12.59 12.2H9.51C6.82 12.2 6.41 12.22 6.29 12.36C6.2 12.47 6.19 12.56 6.27 12.68C6.36 12.83 6.71 12.85 9.47 12.88L12.57 12.9L13.34 13.63L14.1 14.35L14.08 16.85L14.05 19.35H11.85H9.65L9.6 17.94L9.55 16.52L8.53 15.46C7.97 14.88 7.44 14.4 7.34 14.4C7.25 14.4 6.72 14.88 6.16 15.46L5.15 16.53L5.1 17.94L5.05 19.35H2.85H0.65L0.62 16.86L0.6 14.38L1.29 13.66L1.99 12.95L3.61 12.9C4.98 12.86 5.25 12.82 5.33 12.68C5.41 12.56 5.4 12.47 5.31 12.36C5.2 12.23 4.92 12.2 3.64 12.2H2.11L1.92 11.92C1.44 11.22 1.34 10.37 1.67 9.74001C2.03 9.03001 3.42 8.07001 5.9 6.83001C6.59 6.49001 7.23 6.20001 7.34 6.20001C7.44 6.20001 8.2 6.54001 9.04 6.96001ZM8.98 18.11L8.95 19.35H7.35H5.75L5.72 18.12L5.69 16.88L6.52 16.04L7.35 15.19L8.18 16.03L9.01 16.88L8.98 18.11Z" fill="white"/>
<path d="M2.2301 14.68L1.6001 15.15L1.6301 16.3L1.6501 17.45L2.8001 17.48C4.5101 17.52 4.4001 17.6 4.4001 16.3V15.2L3.7801 14.71C3.4301 14.43 3.0801 14.21 3.0001 14.2C2.9201 14.2 2.5701 14.42 2.2301 14.68ZM3.4301 15.31C3.7801 15.6 3.8001 15.64 3.8001 16.21V16.8H3.0001H2.2001V16.17C2.2001 15.55 2.2101 15.53 2.5701 15.27C2.7801 15.12 2.9701 15 3.0001 15C3.0301 15 3.2201 15.14 3.4301 15.31Z" fill="white"/>
<path d="M10.9298 14.71L10.2998 15.2V16.3C10.2998 17.6 10.1898 17.52 11.8998 17.48L13.0498 17.45L13.0698 16.3L13.0998 15.15L12.4698 14.67C12.1198 14.41 11.7698 14.2 11.6898 14.2C11.6098 14.21 11.2698 14.43 10.9298 14.71ZM12.1198 15.26C12.4898 15.52 12.4998 15.54 12.4998 16.16V16.8H11.6998H10.8998V16.21C10.8998 15.64 10.9198 15.6 11.2698 15.31C11.4798 15.14 11.6698 15 11.6898 15C11.7198 15 11.9098 15.12 12.1198 15.26Z" fill="white"/>
</g>
<defs>
<clipPath id="clip0_9516_8215">
<rect width="20" height="20" fill="white"/>
</clipPath>
</defs>
</svg>
