<svg width="16" height="17" viewBox="0 0 16 17" fill="none" xmlns="http://www.w3.org/2000/svg">
<path opacity="0.4" d="M10.3199 2.5H5.01325C2.71325 2.5 1.33325 3.87333 1.33325 6.18V11.48C1.33325 13.7933 2.71325 15.1667 5.01325 15.1667H10.3133C12.6199 15.1667 13.9933 13.7933 13.9933 11.4867V6.18C13.9999 3.87333 12.6199 2.5 10.3199 2.5Z" fill="#3EB489"/>
<path d="M14.0132 2.48669C12.8199 1.28669 11.6532 1.26002 10.4266 2.48669L9.67324 3.23335C9.60657 3.30002 9.58657 3.39335 9.61324 3.48002C10.0799 5.11335 11.3866 6.42002 13.0199 6.88669C13.0399 6.89335 13.0732 6.89335 13.0932 6.89335C13.1599 6.89335 13.2266 6.86669 13.2732 6.82002L14.0132 6.07335C14.6199 5.46669 14.9199 4.88669 14.9199 4.29335C14.9199 3.69335 14.6199 3.10002 14.0132 2.48669Z" fill="#3EB489"/>
<path d="M11.9066 7.44673C11.7266 7.36006 11.5532 7.27339 11.3932 7.17339C11.2599 7.09339 11.1266 7.00673 10.9999 6.91339C10.8932 6.84673 10.7732 6.74673 10.6532 6.64673C10.6399 6.64006 10.5999 6.60673 10.5466 6.55339C10.3399 6.38673 10.1199 6.16006 9.91324 5.91339C9.8999 5.90006 9.8599 5.86006 9.82657 5.80006C9.7599 5.72673 9.6599 5.60006 9.57324 5.46006C9.4999 5.36673 9.41324 5.23339 9.33324 5.09339C9.23324 4.92673 9.14657 4.76006 9.06657 4.58673C8.9799 4.40006 8.91324 4.22673 8.85324 4.06006L5.26657 7.64673C5.03324 7.88006 4.80657 8.32006 4.7599 8.64673L4.47324 10.6334C4.41324 11.0534 4.52657 11.4467 4.78657 11.7067C5.00657 11.9267 5.30657 12.0401 5.6399 12.0401C5.71324 12.0401 5.78657 12.0334 5.8599 12.0267L7.8399 11.7467C8.16657 11.7001 8.60657 11.4801 8.8399 11.2401L12.4266 7.65339C12.2599 7.60006 12.0932 7.52673 11.9066 7.44673Z" fill="#3EB489"/>
</svg>
