<svg width="32" height="32" viewBox="0 0 32 32" fill="none" xmlns="http://www.w3.org/2000/svg">
<rect width="32" height="32" rx="8" fill="#4430C2"/>
<path d="M15.9998 24.9584C11.0582 24.9584 7.0415 20.9417 7.0415 16C7.0415 11.0584 11.0582 7.04169 15.9998 7.04169C20.9415 7.04169 24.9582 11.0584 24.9582 16C24.9582 20.9417 20.9415 24.9584 15.9998 24.9584ZM15.9998 8.29169C11.7498 8.29169 8.2915 11.75 8.2915 16C8.2915 20.25 11.7498 23.7084 15.9998 23.7084C20.2498 23.7084 23.7082 20.25 23.7082 16C23.7082 11.75 20.2498 8.29169 15.9998 8.29169Z" fill="white"/>
<path d="M14.8167 18.9834C14.65 18.9834 14.4917 18.9167 14.375 18.8L12.0167 16.4417C11.775 16.2 11.775 15.8 12.0167 15.5584C12.2584 15.3167 12.6584 15.3167 12.9 15.5584L14.8167 17.475L19.1 13.1917C19.3417 12.95 19.7417 12.95 19.9834 13.1917C20.225 13.4334 20.225 13.8334 19.9834 14.075L15.2584 18.8C15.1417 18.9167 14.9834 18.9834 14.8167 18.9834Z" fill="white"/>
</svg>
