<svg width="13" height="12" viewBox="0 0 13 12" fill="none" xmlns="http://www.w3.org/2000/svg">
<path d="M2.96038 2.11287C2.66885 2.72271 2.52309 3.27553 2.52309 3.77133C2.52309 4.23243 2.63921 4.60924 2.87144 4.90176C3.10861 5.19924 3.45943 5.34798 3.92389 5.34798H4.71693C5.05787 5.34798 5.32716 5.30584 5.5248 5.22155C5.72244 5.13726 5.86327 5.00588 5.94726 4.82739C6.0362 4.6489 6.08067 4.41091 6.08067 4.11343V1.74102H6.54019V4.11343C6.54019 5.28352 5.93244 5.86857 4.71693 5.86857H3.92389C3.5286 5.86857 3.19014 5.76941 2.9085 5.57109C2.62686 5.37773 2.41439 5.11991 2.2711 4.79764C2.13275 4.48033 2.06357 4.13822 2.06357 3.77133C2.06357 3.19124 2.23157 2.56901 2.56756 1.90464L2.96038 2.11287ZM4.17795 1.31958H4.83759V1.98147H4.17795V1.31958Z" fill="#757575"/>
<path d="M2.56473 10.5093C2.11509 10.5093 1.79639 10.3903 1.60863 10.1523C1.42087 9.91431 1.32699 9.55981 1.32699 9.0888L1.31958 5.68264H1.7791L1.78651 9.0888C1.78651 9.3367 1.80628 9.52262 1.84581 9.64657C1.89027 9.77052 1.96686 9.85977 2.07557 9.91431C2.18427 9.96389 2.34732 9.98868 2.56473 9.98868H2.66108L2.69814 10.2564L2.66108 10.5093H2.56473Z" fill="#757575"/>
<path d="M2.35428 9.98868H2.56181C2.68533 9.98868 2.7891 9.95645 2.8731 9.89199C2.96204 9.82754 3.02133 9.7383 3.05098 9.62426L3.28815 8.769C3.39191 8.39715 3.55249 8.10711 3.7699 7.89887C3.98731 7.68568 4.24919 7.57908 4.55554 7.57908C4.80259 7.57908 5.02 7.65097 5.20776 7.79475C5.39552 7.93854 5.54128 8.1319 5.64505 8.37484C5.74881 8.61779 5.80069 8.88304 5.80069 9.1706C5.80069 9.51766 5.75128 9.80523 5.65246 10.0333C5.55364 10.2564 5.42764 10.4175 5.27447 10.5167C5.12129 10.6208 4.95576 10.6729 4.77788 10.6729C4.59506 10.6729 4.4073 10.6357 4.2146 10.5613C4.02684 10.487 3.72543 10.3432 3.31038 10.13C3.2165 10.249 3.10286 10.3432 2.96945 10.4126C2.84098 10.477 2.7051 10.5093 2.56181 10.5093H2.35428V9.98868ZM3.51791 9.66889C3.90825 9.86721 4.18001 9.99859 4.33319 10.063C4.48636 10.1225 4.63459 10.1523 4.77788 10.1523C4.95576 10.1523 5.09411 10.0829 5.19294 9.94405C5.29176 9.80027 5.34117 9.54245 5.34117 9.1706C5.34117 8.84338 5.27199 8.58308 5.13364 8.38972C5.00023 8.19635 4.80753 8.09967 4.55554 8.09967C4.35789 8.09967 4.1899 8.16661 4.05155 8.30047C3.9132 8.43434 3.80696 8.63514 3.73284 8.90287L3.51791 9.66889Z" fill="#757575"/>
<path d="M7.00713 10.1597C7.35794 10.1597 7.63218 10.1126 7.82982 10.0184C8.0324 9.92918 8.17322 9.79531 8.25228 9.61683C8.33628 9.43834 8.37828 9.20531 8.37828 8.91774V8.79875H7.50371C7.10842 8.79875 6.78725 8.68472 6.54019 8.45665C6.29808 8.22362 6.17703 7.89144 6.17703 7.46009C6.17703 7.16261 6.23138 6.89488 6.34008 6.65689C6.45373 6.41395 6.61184 6.22306 6.81442 6.08424C7.01701 5.94046 7.2443 5.86857 7.49629 5.86857C7.90146 5.86857 8.2251 6.01731 8.46722 6.31479C8.71427 6.60731 8.8378 6.98908 8.8378 7.46009V8.27816H9.25285L9.28991 8.54589L9.25285 8.79875H8.8378V8.91774C8.8378 9.46313 8.69204 9.89199 8.40051 10.2043C8.11393 10.5217 7.64947 10.6803 7.00713 10.6803H6.27338V10.1597H7.00713ZM6.63655 7.46009C6.63655 7.75261 6.70819 7.96333 6.85148 8.09224C6.99478 8.21619 7.21218 8.27816 7.50371 8.27816H8.37828V7.46009C8.37828 7.12294 8.30169 6.86017 8.14852 6.67176C8.00029 6.4784 7.78288 6.38172 7.49629 6.38172C7.22948 6.38172 7.01948 6.48088 6.86631 6.6792C6.71313 6.87256 6.63655 7.13286 6.63655 7.46009Z" fill="#757575"/>
<path d="M8.8378 8.27816H9.42775C9.71434 8.27816 9.91692 8.22362 10.0355 8.11455C10.159 8.00051 10.2208 7.85425 10.2208 7.67576C10.2208 7.53694 10.1961 7.33118 10.1467 7.05849C10.1022 6.78084 10.0503 6.52055 9.99104 6.2776L10.4357 6.15861C10.495 6.41643 10.5494 6.6916 10.5988 6.98412C10.6531 7.27664 10.6803 7.50719 10.6803 7.67576C10.6803 7.86417 10.6358 8.04513 10.5469 8.21866C10.458 8.38724 10.3196 8.52606 10.1319 8.63514C9.9441 8.74421 9.7094 8.79875 9.42775 8.79875H8.8378V8.27816ZM8.50624 4.59683H9.16588V5.25872H8.50624V4.59683ZM9.73657 4.59683H10.3962V5.25872H9.73657V4.59683Z" fill="#757575"/>
</svg>
