<svg width="16" height="17" viewBox="0 0 16 17" fill="none" xmlns="http://www.w3.org/2000/svg">
<path d="M14.0466 3.98671C12.9733 3.88004 11.8999 3.80004 10.8199 3.74004V3.73337L10.6733 2.86671C10.5733 2.25337 10.4266 1.33337 8.86661 1.33337H7.11994C5.56661 1.33337 5.41994 2.21337 5.31328 2.86004L5.17328 3.71337C4.55328 3.75337 3.93328 3.79337 3.31328 3.85337L1.95328 3.98671C1.67328 4.01337 1.47328 4.26004 1.49994 4.53337C1.52661 4.80671 1.76661 5.00671 2.04661 4.98004L3.40661 4.84671C6.89994 4.50004 10.4199 4.63337 13.9533 4.98671C13.9733 4.98671 13.9866 4.98671 14.0066 4.98671C14.2599 4.98671 14.4799 4.79337 14.5066 4.53337C14.5266 4.26004 14.3266 4.01337 14.0466 3.98671Z" fill="#B0276D"/>
<path opacity="0.3991" d="M12.8199 5.92663C12.6599 5.75996 12.4399 5.66663 12.2132 5.66663H3.78658C3.55991 5.66663 3.33325 5.75996 3.17991 5.92663C3.02658 6.09329 2.93991 6.31996 2.95325 6.55329L3.36658 13.3933C3.43991 14.4066 3.53325 15.6733 5.85991 15.6733H10.1399C12.4666 15.6733 12.5599 14.4133 12.6332 13.3933L13.0466 6.55996C13.0599 6.31996 12.9732 6.09329 12.8199 5.92663Z" fill="#B0276D"/>
<path fill-rule="evenodd" clip-rule="evenodd" d="M6.38672 11.8334C6.38672 11.5572 6.61058 11.3334 6.88672 11.3334H9.10672C9.38286 11.3334 9.60672 11.5572 9.60672 11.8334C9.60672 12.1095 9.38286 12.3334 9.10672 12.3334H6.88672C6.61058 12.3334 6.38672 12.1095 6.38672 11.8334Z" fill="#B0276D"/>
<path fill-rule="evenodd" clip-rule="evenodd" d="M5.83325 9.16663C5.83325 8.89048 6.05711 8.66663 6.33325 8.66663H9.66659C9.94273 8.66663 10.1666 8.89048 10.1666 9.16663C10.1666 9.44277 9.94273 9.66663 9.66659 9.66663H6.33325C6.05711 9.66663 5.83325 9.44277 5.83325 9.16663Z" fill="#B0276D"/>
</svg>
